<svg width="176" height="48" viewBox="0 0 176 48" fill="none" xmlns="http://www.w3.org/2000/svg">
<g clip-path="url(#clip0)">
<path d="M25 36.8C25.3 32.4 23.2 28.6 16.5 25.8L11.4 23.7C4.8 20.9 2.4 16.5 2.7 11.5C3.3 3.6 9.7 -0.199999 17.7 0.400001C23.2 0.800001 26.6 2.2 29.6 4.3L29.1 11H28.5C26.4 4.5 22.4 2.5 17.6 2.2C12.5 1.9 8.4 5.1 8.1 9.5C7.8 13.3 9.1 16.3 14.4 18.6L18.4 20.3C23.7 22.5 31 25.8 30.4 34.7C29.8 42.9 23.7 48.1 14.3 47.5C8.4 47.1 3.6 45.5 0 42.6L0.5 35H1.1C4.1 44.4 9.2 45.1 13.7 45.4C21 45.8 24.7 41.9 25 36.8V36.8ZM64.5 41.9C64.5 44.8 65.5 45.5 68.5 45.5H71.1V46.6H52.1V45.4H54.4C57.7 45.4 58.7 44.7 58.7 41.9V3.4H51.2C45.6 3.4 42.9 5.8 42 11.1H41.4V1.3H81.6V11.1H81.1C80.3 5.8 77.6 3.4 71.9 3.4H64.4V41.9H64.5ZM158.5 41.9C158.5 44.8 159.5 45.5 162.5 45.5H165.1V46.6H146.1V45.4H148.4C151.7 45.4 152.7 44.7 152.7 41.9V3.4H145.2C139.6 3.4 136.9 5.8 136 11.1H135.4V1.3H175.6V11.1H175C174.2 5.8 171.5 3.4 165.8 3.4H158.3V41.9H158.5ZM116.4 0H117.1L124.1 42.2C124.7 44.3 125.8 45.5 128 45.5H129.3L129.1 46.6H113.3L113.5 45.4H114.7C116.9 45.4 118.4 44.7 118 42.7L116 30.3H99.9L95.2 37.8C91.1 44.8 92 45.4 96.1 45.4H97L96.9 46.6H83.6L83.8 45.4H84.4C87.5 45.4 88.6 44.4 92.4 38.5L116.4 0V0ZM102.3 26.6H115.5L112.8 10L102.3 26.6Z" fill="white"/>
</g>
<defs>
<clipPath id="clip0">
<rect width="175.6" height="47.5469" fill="white"/>
</clipPath>
</defs>
</svg>
