<svg id="Artwork" xmlns="http://www.w3.org/2000/svg" viewBox="0 0 679.51 144"><defs><style>.cls-1{fill:#fff;}.cls-2{fill:#1fadb6;}</style></defs><title>Stat_Plus_Logo_White</title><path class="cls-1" d="M75.46 111.89c.95-13.49-5.4-25.03-25.77-33.49l-15.44-6.45c-20-8.44-27.41-21.78-26.38-37.07 1.61-23.87 21-35.4 45.17-33.77 16.81 1.13 27 5.37 36.19 11.73l-1.37 20.51-1.68-.11C79.9 13.56 67.66 7.33 53.2 6.4c-15.47-1-28 8.92-28.84 22-.77 11.43 3 20.64 19.24 27.64l12.15 5.21c16.09 6.83 38.4 16.61 36.56 43.84-1.69 25-20.31 40.68-48.88 38.75-17.82-1.2-32.52-6.08-43.42-14.75l1.56-23.2 1.68.11c9.21 28.65 24.61 30.71 38.4 31.64 21.51 1.45 32.76-10.24 33.81-25.75zm119.87 15.33c0 8.93 3 11 12.13 11h7.95v3.54h-57.65v-3.54h7.08c9.94 0 13-2 13-10.78V10.28h-22.78c-17 0-25.11 7.25-27.8 23.42h-1.69V4.04h122V33.7h-1.69c-2.53-16-10.62-23.42-27.8-23.42h-22.75zm285.61 0c0 8.93 3 11 12.13 11h7.92v3.54h-57.58v-3.54h7c9.94 0 13-2 13-10.78V10.28h-22.75c-17 0-25.11 7.25-27.8 23.42h-1.69V4.04h122V33.7h-1.69c-2.53-16-10.62-23.42-27.8-23.42h-22.74zM352.85 0h2.19l21.37 128.22c1.69 6.4 5.05 9.94 11.79 9.94h4l-.51 3.54h-48l.51-3.54h3.71c6.74 0 11.19-2 10.11-8.26l-6.15-37.57h-48.96l-14.29 22.81c-12.42 21.12-9.64 23 2.66 23h2.86l-.51 3.54h-40.42l.51-3.54h1.69c9.44 0 12.75-3 24.43-20.89zm-42.76 80.88h40l-8.29-50.55z"/><path class="cls-2" d="M609.92 11.1h15.51v123.66h-15.51z"/><path class="cls-2" d="M555.85 65.17h123.66v15.51H555.85z"/></svg>